# xmcd CD database file
#
# Track frame offsets:
#	150
#	19742
#	46257
#	61433
#	77397
#
# Disc length: 1200 seconds
#
# Revision: 0
# Processed by: cddbd v1.5.1PL0 Copyright (c) Steve Scherf et al.
# Submitted via: CDex 1.51
#
DISCID=3104ae05
DTITLE=chestercopper pot - スクラップ DISC1
DYEAR=2005
DGENRE=ロック (一般)
TTITLE0=スクラップ
TTITLE1=絶望的夜空
TTITLE2=マラソンランナー
TTITLE3=タバスコ
TTITLE4=寝不足
EXTD=YEAR: 2005
EXTT0=
EXTT1=
EXTT2=
EXTT3=
EXTT4=
PLAYORDER=
